<svg xmlns="http://www.w3.org/2000/svg" viewBox="0 0 15.03 12.37"><defs><style>.cls-1{fill:#9fa0a0;fill-rule:evenodd;}</style></defs><title>资源 20</title><g id="图层_2" data-name="图层 2"><g id="图层_3" data-name="图层 3"><g id="_编组_" data-name="&lt;编组&gt;"><path id="_复合路径_" data-name="&lt;复合路径&gt;" class="cls-1" d="M14.42,3.69A6.18,6.18,0,0,0,12.8,1.75,8.45,8.45,0,0,0,7.52,0,8.46,8.46,0,0,0,2.23,1.75,6.18,6.18,0,0,0,.6,3.69,5.06,5.06,0,0,0,.48,8.23,5.87,5.87,0,0,0,1.62,9.87c-.11.36-.36,1.17-.61,1.92l-.19.59.61-.09L3.11,12c1-.15,1.44-.23,1.66-.27a9.05,9.05,0,0,0,2.75.42,8.45,8.45,0,0,0,5.28-1.76,6.19,6.19,0,0,0,1.63-1.93,5.06,5.06,0,0,0,0-4.8ZM7.52,11.41A8.28,8.28,0,0,1,4.9,11l-.18-.06-.1.07c-.27.06-1.46.25-2.68.43L2.08,11a5.49,5.49,0,0,0,.35-1.24V9.59l-.12-.11A5.18,5.18,0,0,1,1.17,7.91,4.31,4.31,0,0,1,.76,6.09c0-2.94,3-5.32,6.75-5.32s6.75,2.39,6.75,5.32-3,5.32-6.75,5.32Z"/></g></g></g></svg>