<svg xmlns="http://www.w3.org/2000/svg" viewBox="0 0 15.08 13.51"><defs><style>.cls-1{fill:#9fa0a0;fill-rule:evenodd;}</style></defs><title>资源 21</title><g id="图层_2" data-name="图层 2"><g id="图层_3" data-name="图层 3"><g id="_编组_" data-name="&lt;编组&gt;"><path id="_复合路径_" data-name="&lt;复合路径&gt;" class="cls-1" d="M15,3.46A4.2,4.2,0,0,0,12.9.55,4.1,4.1,0,0,0,11,0a4.35,4.35,0,0,0-3.51,2.3C6.51.79,5.36,0,4.06,0A4.18,4.18,0,0,0,1.36,1.16,4.91,4.91,0,0,0,.62,6.91c1.25,2.67,6.59,6.39,6.81,6.55a.31.31,0,0,0,.35,0,54,54,0,0,0,5-4.18,12.11,12.11,0,0,0,1.7-2.13A5.85,5.85,0,0,0,15,3.46ZM13.9,6.86a11.7,11.7,0,0,1-1.57,2,58.1,58.1,0,0,1-4.7,4c-.94-.67-5.37-3.92-6.44-6.2a4.27,4.27,0,0,1,.63-5,3.59,3.59,0,0,1,2.24-1c1.18,0,2.25.84,3.17,2.5a.31.31,0,0,0,.29.16.31.31,0,0,0,.27-.18S8.92.67,11,.67a3.48,3.48,0,0,1,1.61.44,3.6,3.6,0,0,1,1.76,2.43,5.21,5.21,0,0,1-.47,3.32Z"/></g></g></g></svg>